<?xml version="1.0" encoding="UTF-8" standalone="no"?>
<!-- Created with Inkscape (http://www.inkscape.org/) -->

<svg
   xmlns:dc="http://purl.org/dc/elements/1.1/"
   xmlns:cc="http://creativecommons.org/ns#"
   xmlns:rdf="http://www.w3.org/1999/02/22-rdf-syntax-ns#"
   xmlns:svg="http://www.w3.org/2000/svg"
   xmlns="http://www.w3.org/2000/svg"
   xmlns:sodipodi="http://sodipodi.sourceforge.net/DTD/sodipodi-0.dtd"
   xmlns:inkscape="http://www.inkscape.org/namespaces/inkscape"
   width="210mm"
   height="297mm"
   viewBox="0 0 210 297"
   version="1.1"
   id="svg8"
   inkscape:version="0.92.1 r15371"
   sodipodi:docname="logo.svg">
  <defs
     id="defs2">
    <inkscape:path-effect
       effect="spiro"
       id="path-effect3758"
       is_visible="true" />
    <inkscape:path-effect
       effect="bspline"
       id="path-effect3748"
       is_visible="true"
       weight="33.333333"
       steps="2"
       helper_size="0"
       apply_no_weight="true"
       apply_with_weight="true"
       only_selected="false" />
  </defs>
  <sodipodi:namedview
     id="base"
     pagecolor="#ffffff"
     bordercolor="#666666"
     borderopacity="1.0"
     inkscape:pageopacity="0.0"
     inkscape:pageshadow="2"
     inkscape:zoom="0.35"
     inkscape:cx="400"
     inkscape:cy="674.28571"
     inkscape:document-units="mm"
     inkscape:current-layer="layer1"
     showgrid="false"
     inkscape:measure-start="0,0"
     inkscape:measure-end="0,0"
     inkscape:window-width="1304"
     inkscape:window-height="746"
     inkscape:window-x="-8"
     inkscape:window-y="-8"
     inkscape:window-maximized="1"
     inkscape:object-paths="false"
     inkscape:object-nodes="true"
     inkscape:snap-nodes="true" />
  <metadata
     id="metadata5">
    <rdf:RDF>
      <cc:Work
         rdf:about="">
        <dc:format>image/svg+xml</dc:format>
        <dc:type
           rdf:resource="http://purl.org/dc/dcmitype/StillImage" />
        <dc:title></dc:title>
      </cc:Work>
    </rdf:RDF>
  </metadata>
  <g
     inkscape:label="Layer 1"
     inkscape:groupmode="layer"
     id="layer1">
    <g
       id="g65"
       transform="translate(-5.2916666,-10.583333)">
      <path
         style="fill:#800080;stroke-width:0.26458332"
         inkscape:transform-center-x="0.46116132"
         inkscape:transform-center-y="0.29082986"
         d="m 46.113096,58.875003 -5.162313,-0.251296 -3.133606,4.110126 -1.356246,-4.987306 -4.8773,-1.710138 4.324108,-2.831028 0.119269,-5.16705 4.02869,3.237635 4.951013,-1.483275 -1.83424,4.831997 z"
         id="path3692" />
      <g
         id="g47">
        <g
           aria-label="Gaby Ramírez"
           transform="matrix(0.28092825,0,0,0.26458333,-3.0722058,0)"
           style="font-style:normal;font-variant:normal;font-weight:500;font-stretch:normal;font-size:51.75856781px;line-height:1.25;font-family:'Brush Script Std';-inkscape-font-specification:'Brush Script Std Medium';letter-spacing:0px;word-spacing:0px;fill:#000000;fill-opacity:1;stroke:none"
           id="flowRoot3682">
          <path
             d="m 209.05796,206.72114 0.10351,0.10352 c -2.1221,4.55475 -5.12409,8.74719 -8.28137,12.78436 -5.07234,2.48441 -9.67885,7.09093 -9.52357,10.55875 0.0518,1.13869 0.6211,2.17386 1.91506,2.17386 3.51959,0 11.33513,-8.4884 13.45723,-11.38688 l 8.33313,-5.64169 c 7.03917,-4.76179 6.67686,-5.17585 6.78037,-7.45323 l -11.38688,7.34971 -0.10352,-0.10351 c 3.98541,-6.26279 7.2462,-10.76578 9.47182,-15.26878 0.20703,-0.41407 0.72462,-1.29396 0.72462,-1.81155 0,-0.67286 -0.72462,-1.08693 -1.29396,-1.39748 -0.41407,-0.25879 -1.44924,-0.8799 -1.91507,-0.8799 -0.46583,0 -0.8799,0.36231 -1.19045,0.67286 l -18.94363,14.38889 c -0.8799,0.67286 -2.43266,1.60451 -3.51959,1.60451 -1.13869,0 -1.55275,-0.87989 -1.81155,-1.96682 -0.56934,-2.58793 8.64368,-15.21702 24.1195,-19.77178 l 0.10351,0.10352 -2.17386,1.75979 c -0.36231,0.25879 -1.39748,0.98341 -1.39748,1.501 0,0.41407 0.25879,0.72462 0.67286,0.72462 0.46583,0 1.501,-0.0518 8.64368,-4.71003 1.03518,-0.67286 2.12211,-1.44924 2.12211,-2.79496 0,-0.98341 -0.36231,-2.53617 -0.93166,-3.31255 -0.56934,-0.77638 -1.13869,-0.98341 -2.1221,-0.8799 -14.28536,1.60452 -23.65367,8.90248 -27.22501,12.83613 -3.00199,3.10551 -6.3663,8.59192 -6.3663,13.04316 0,3.6231 1.70803,6.78037 5.79696,7.2462 2.95024,0.36231 7.60851,-3.36431 10.19644,-5.27938 z"
             id="path4568"
             inkscape:connector-curvature="0" />
          <path
             d="m 237.79771,204.28849 0.10352,0.10351 c -10.2482,10.35172 -11.85271,10.19644 -12.88789,10.40348 -0.77637,0.15527 -0.98341,-0.77638 -1.03517,-1.03518 0,-2.53616 1.501,-5.69344 13.81954,-9.47181 z m -2.79496,6.9874 0.10352,0.10352 c -0.67287,1.39748 -1.91507,4.14069 -1.91507,5.79696 0,1.501 0.77638,2.7432 2.48441,2.7432 2.53617,0 9.47182,-5.53816 11.69744,-8.07433 l -0.41407,-1.91507 c -2.22562,1.501 -5.17586,4.14069 -7.34972,4.14069 -0.82814,0 -1.60451,-0.36231 -1.60451,-1.24221 0,-2.43265 4.50299,-6.05575 4.50299,-7.71203 0,-1.13868 -0.51758,-1.70803 -1.501,-2.1221 0.46583,-0.15527 1.81155,-0.67286 1.81155,-1.29396 0,-0.6211 -0.98341,-2.53617 -3.3643,-2.48441 -6.004,0.15527 -19.46123,6.78037 -19.25419,13.25019 0.10352,2.69145 3.10551,6.10751 4.55475,6.10751 1.19045,0 4.503,-2.69144 5.48641,-3.46782 z"
             id="path4570"
             inkscape:connector-curvature="0" />
          <path
             d="m 259.13922,200.92418 c 3.31255,-3.20903 10.97282,-10.97282 10.97282,-15.68285 0,-0.98341 -0.46583,-1.91506 -1.501,-1.91506 -2.17386,0 -10.29995,6.31454 -14.4924,11.33512 -4.08892,4.86531 -7.14268,10.40348 -7.14268,16.92506 0,2.48441 0.46583,7.50499 3.83013,7.50499 3.41607,0 7.03917,-3.15728 9.26479,-5.48641 3.31255,-0.0518 5.95223,-0.8799 8.28137,-3.31255 l -0.51759,-1.70803 c -1.65627,1.19045 -3.3643,2.32913 -5.48641,1.91507 0.8799,-1.91507 2.48442,-4.29597 2.48442,-6.46983 0,-0.98341 -0.31056,-2.27737 -1.55276,-2.27737 -3.05376,0 -7.19444,5.07234 -7.19444,8.07433 0,0.82814 0.31055,1.34573 0.72462,2.01859 -0.8799,1.03517 -1.81155,2.43265 -3.46783,2.69144 -1.96682,0.2588 -3.20903,-2.43265 -2.27737,-5.69344 z m 6.6251,-13.14668 0.10352,0.10352 c -0.8799,1.86331 -2.01859,4.81355 -12.83613,15.57933 l -0.10351,-0.10352 c 3.05375,-6.00399 7.71202,-11.23161 12.83612,-15.57933 z"
             id="path4572"
             inkscape:connector-curvature="0" />
          <path
             d="m 291.76734,210.08545 -0.41407,-1.91507 -11.4904,10.19644 -0.10352,-0.10352 7.66027,-11.38688 c 0.72462,-1.08693 2.1221,-3.20904 2.1221,-4.55476 0,-0.72462 -0.51758,-2.7432 -1.39748,-2.58793 -0.98341,0.15528 -4.29596,3.72662 -9.62709,8.64368 -2.17386,2.01859 -4.65827,4.24421 -7.40148,4.55476 0.0518,-1.08693 0.36231,-2.1221 0.98342,-3.002 1.70803,-1.34572 7.55675,-6.72861 7.55675,-8.69544 0,-0.72462 -1.44924,-2.38089 -2.22562,-2.38089 -1.44924,0.0518 -10.29996,6.62509 -10.09292,12.83612 0.15527,3.83014 2.63968,6.004 4.08892,6.10751 0.62111,0.0518 4.39948,-2.7432 8.64369,-6.31454 l 0.10351,0.10352 -6.93565,11.69743 c -0.41406,0.67286 -1.39748,2.27738 -1.39748,3.10552 0,0.87989 0.46583,3.41606 1.55276,3.41606 0.82814,0 2.27738,-2.01858 2.79496,-2.58793 z"
             id="path4574"
             inkscape:connector-curvature="0" />
          <path
             d="m 330.54745,195.2825 c 0.93165,-1.44924 1.8633,-2.63969 1.81155,-4.45124 l 9.57533,-0.67286 c 1.13869,-0.10352 6.72861,-0.0518 6.72861,1.55276 0,2.53616 -6.93564,5.4864 -9.05774,6.05575 l -12.88789,3.3643 z m 8.64368,22.72201 c 1.39748,0.51758 5.07234,2.32913 6.41806,2.32913 1.75979,0 1.55276,-3.88189 0.56934,-5.69344 -0.25879,-0.41407 -0.0518,-1.75979 -8.95423,-4.60651 l -13.97481,-4.45124 v -0.10352 c 18.63308,-3.46782 21.22101,-3.41606 25.46521,-6.83213 2.07035,-1.65627 3.72662,-5.64168 3.72662,-8.28137 0,-6.62509 -10.09292,-7.09092 -14.85471,-7.09092 -10.45523,0 -21.63508,2.7432 -24.06773,5.64168 -1.03517,1.29397 -2.63969,4.60651 -2.63969,6.26279 0,0.98341 1.08693,1.2422 1.86331,1.2422 1.501,0 3.36431,-0.36231 4.81355,-0.51758 l 4.03716,-0.41407 c 0.2588,0 0.98342,-0.15528 0.98342,-0.56934 0,-0.77638 -1.03517,-0.56935 -4.29596,-0.8799 v -0.10352 c 3.51958,-1.39748 7.34971,-2.07034 11.12809,-2.69144 l -7.66027,11.07633 c -4.81355,0.15528 -7.50499,2.63969 -7.97082,5.33113 -0.20703,1.03518 1.65627,1.70804 2.48441,1.91507 l -4.81355,7.91906 c -0.51758,0.82814 -0.87989,1.55276 -0.87989,2.53617 0,0.67286 0.56934,1.08693 1.19045,1.08693 1.39748,0 4.45123,-1.91507 3.83013,-3.72662 l 4.45124,-6.46982 z"
             id="path4576"
             inkscape:connector-curvature="0" />
          <path
             d="m 365.77886,204.28849 0.10352,0.10351 c -10.2482,10.35172 -11.85272,10.19644 -12.88789,10.40348 -0.77638,0.15527 -0.98341,-0.77638 -1.03517,-1.03518 0,-2.53616 1.501,-5.69344 13.81954,-9.47181 z m -2.79496,6.9874 0.10351,0.10352 c -0.67286,1.39748 -1.91506,4.14069 -1.91506,5.79696 0,1.501 0.77637,2.7432 2.48441,2.7432 2.53617,0 9.47182,-5.53816 11.69743,-8.07433 l -0.41406,-1.91507 c -2.22562,1.501 -5.17586,4.14069 -7.34972,4.14069 -0.82814,0 -1.60452,-0.36231 -1.60452,-1.24221 0,-2.43265 4.503,-6.05575 4.503,-7.71203 0,-1.13868 -0.51759,-1.70803 -1.501,-2.1221 0.46583,-0.15527 1.81155,-0.67286 1.81155,-1.29396 0,-0.6211 -0.98341,-2.53617 -3.36431,-2.48441 -6.00399,0.15527 -19.46122,6.78037 -19.25418,13.25019 0.10351,2.69145 3.10551,6.10751 4.55475,6.10751 1.19045,0 4.503,-2.69144 5.48641,-3.46782 z"
             id="path4578"
             inkscape:connector-curvature="0" />
          <path
             d="m 400.68112,207.96335 0.10351,0.10351 c -1.29396,2.1221 -3.83013,5.79696 -3.83013,8.38489 0,1.501 1.08693,3.002 2.63969,3.002 2.89848,0 10.35171,-6.10751 12.78436,-8.02258 l -0.31055,-2.43265 c -6.3663,4.34772 -6.93565,4.34772 -8.02258,4.60651 -0.6211,0.15527 -1.29396,-0.67286 -1.2422,-1.29396 0.0518,-1.19045 0.36231,-2.01859 4.39948,-6.46983 0.56934,-0.6211 1.60451,-1.75979 1.60451,-2.63968 0,-0.72462 -0.56934,-1.501 -0.93165,-2.07035 -0.15528,-0.20703 -0.67286,-1.44924 -1.08693,-1.44924 -0.62111,0 -1.91507,1.03518 -2.43266,1.44924 l -11.4904,9.05775 -0.10352,-0.10351 c 1.13869,-2.01859 4.81355,-6.21103 4.81355,-8.48841 0,-1.34572 -0.72462,-2.38089 -2.1221,-2.38089 -3.36431,0 -12.57733,9.21302 -15.1135,11.85271 -0.15528,0.15528 -0.77638,0.82814 -1.03517,0.82814 -0.20704,0 -0.36231,-0.36231 -0.36231,-0.46583 0,-1.08693 0.93165,-1.91507 1.501,-2.69145 0.77637,-1.13868 1.91506,-2.07034 2.84672,-3.15727 0.6211,-0.72462 2.07034,-2.27738 2.07034,-3.31255 0,-1.08693 -1.55276,-1.08693 -2.32914,-1.19044 -3.10551,-0.41407 -8.59192,6.52158 -8.64368,11.59391 0,1.86331 0.72462,5.90048 3.20903,5.90048 0.93166,0 1.65628,-0.77638 2.22562,-1.44924 2.43266,-3.002 5.33114,-6.10751 8.02258,-8.95423 0.36231,-0.36231 1.501,-1.60452 2.01859,-1.60452 0.20703,0 0.36231,0.15528 0.36231,0.36231 0,0.15528 -0.20704,0.56935 -0.31056,0.67287 -3.3643,5.12409 -4.60651,7.50499 -4.55475,9.00599 0.0518,1.2422 1.03517,2.17386 2.27738,2.17386 1.75979,0 3.6231,-2.12211 4.81354,-3.26079 z"
             id="path4580"
             inkscape:connector-curvature="0" />
          <path
             d="m 425.8843,209.93017 c -2.07034,1.501 -4.76179,4.2442 -7.50499,4.2442 -2.3809,0 -3.15727,-1.13869 -2.74321,-3.26079 2.17386,-1.50099 7.29796,-6.10751 7.29796,-8.69544 0,-1.13868 -1.39748,-1.44924 -2.27737,-1.44924 -3.10552,0 -9.57534,6.15927 -9.57534,12.47382 0,2.63969 1.39748,6.15927 4.45124,6.15927 3.93365,0 8.4884,-4.65827 10.81754,-7.50499 z m -2.43265,-17.18384 c -1.55276,0.46582 -4.96882,1.39748 -6.26279,2.22561 -0.6211,0.41407 -1.44924,1.34573 -1.44924,2.12211 0,0.41406 0.36231,0.46582 0.72462,0.46582 0.51759,0 1.19045,-0.20703 1.70803,-0.41407 1.34573,-0.51758 3.46783,-0.87989 4.91707,-1.08693 1.91506,-0.25879 2.53617,-0.31055 4.39948,-0.20703 2.1221,0.15528 1.96682,0 1.81155,-2.1221 -0.10352,-1.08693 0.10351,-2.22562 -1.19045,-2.22562 -0.56935,0 -1.08693,0.15528 -1.60452,0.31055 z"
             id="path4582"
             inkscape:connector-curvature="0" />
          <path
             d="m 435.11512,206.20355 0.10352,0.10352 c -2.07034,2.48441 -4.76179,5.22762 -4.76179,8.7472 0,1.96682 1.34572,3.98541 3.51958,3.98541 2.95024,0 8.90248,-5.7452 10.8693,-7.97082 l -0.36231,-1.91507 c -1.70803,1.29397 -4.96882,4.65827 -7.19444,4.65827 -0.77638,0 -1.60451,-0.6211 -1.60451,-1.44924 0,-2.07034 2.53617,-4.60651 4.03716,-5.90047 1.19045,-0.98342 2.17386,-1.75979 2.17386,-3.36431 -0.10351,-0.93165 -0.46582,-1.75979 -1.2422,-2.7432 -0.51759,-0.62111 -3.36431,0 -8.22961,0.67286 0.20703,-0.46583 0.36231,-0.93166 0.36231,-1.44924 0,-0.46583 -0.41407,-0.8799 -0.93166,-0.8799 -1.2422,0 -6.52158,3.72662 -6.52158,7.45324 0,1.08693 0.31055,1.50099 1.39748,1.60451 -0.98341,1.39748 -2.07034,2.69145 -3.41606,3.77838 l 0.20703,2.27737 c 2.22562,-2.22561 4.39948,-3.57134 6.21103,-6.41806 z"
             id="path4584"
             inkscape:connector-curvature="0" />
          <path
             d="m 462.83993,208.94676 c -2.7432,2.17386 -7.09092,5.95223 -10.76578,5.95223 -1.65627,0 -3.3643,-0.67286 -3.20903,-2.63968 l 0.10352,-1.13869 c 9.93764,-3.26079 12.47381,-7.09093 12.47381,-9.6271 0,-2.07034 -2.07034,-2.48441 -3.72661,-2.48441 -6.72862,-0.0518 -14.23361,6.88389 -14.02658,13.66426 0.10352,3.41607 1.86331,6.78038 5.64169,6.78038 5.1241,0 10.81754,-4.86531 13.97481,-8.54017 z m -13.56074,-0.36231 c 1.39748,-3.41607 4.39948,-5.90048 6.98741,-6.57334 0.36231,-0.10352 0.6211,0.20703 0.6211,0.56934 0.0518,0.8799 -3.05376,4.45124 -7.60851,6.004 z"
             id="path4586"
             inkscape:connector-curvature="0" />
          <path
             d="m 482.32298,210.03369 -0.15528,-2.22562 -8.17785,6.31454 c -0.41407,-1.70803 -1.29396,-3.05375 -2.69144,-4.08892 l 6.62509,-4.81355 c 0.62111,-0.41407 1.55276,-1.19045 1.55276,-2.01858 0,-0.56935 -0.67286,-4.08893 -1.65627,-4.08893 -1.03518,0 -2.79497,0.8799 -6.88389,1.501 0,-0.82814 -0.31056,-1.81155 -1.29397,-1.81155 -1.65627,0 -5.64168,3.6231 -5.64168,5.53817 0,0.93165 0.6211,1.2422 1.39748,1.39748 l -3.6231,4.39948 0.56934,1.70803 5.90048,-6.41806 6.31455,-1.08693 0.10351,0.10351 c -5.7452,4.76179 -9.16126,6.10751 -9.42006,7.81555 -0.15527,0.98341 1.08693,1.08693 1.86331,1.29396 2.01859,0.56934 2.79496,0.82814 3.31255,3.002 l -6.72861,5.38289 c -2.07035,1.65627 -4.71003,3.88189 -4.65827,6.72861 0,1.34573 0.93165,2.63969 2.32913,2.48441 3.41607,-0.36231 11.4904,-5.64168 12.68085,-13.92305 z m -11.95623,9.67885 c -0.67286,3.72662 -5.22761,7.91906 -8.7472,8.85072 0.20704,-1.86331 1.34573,-3.05376 2.79497,-4.19245 z"
             id="path4588"
             inkscape:connector-curvature="0" />
        </g>
        <path
           transform="rotate(-90,54.048455,-143.33617)"
           style="fill:#800080;stroke-width:0.26458332"
           inkscape:transform-center-x="-0.29083063"
           inkscape:transform-center-y="0.46115731"
           d="m -136.53259,-50.268696 -5.16232,-0.251297 -3.1336,4.110127 -1.35625,-4.987307 -4.8773,-1.710138 4.32411,-2.831028 0.11927,-5.16705 4.02869,3.237635 4.95101,-1.483274 -1.83424,4.831996 z"
           id="path3692-3"
           inkscape:connector-curvature="0" />
        <path
           style="fill:none;fill-rule:evenodd;stroke:#000000;stroke-width:0.36480543"
           d="m 86.836201,55.804217 c 2.566966,0.02964 1.13864,1.096319 -0.157604,1.333735 -3.512706,0.643384 -7.445249,-0.386768 -8.375341,-1.432264 -1.663719,-1.870148 3.323349,-3.593757 9.005707,-3.902676 8.339088,-0.453351 15.619987,1.694602 16.593097,4.198263 1.297,3.336987 -7.520143,6.180998 -17.85383,6.471616 C 73.044352,62.838605 62.109497,59.46567 61.237403,55.50863 60.18118,50.716125 72.95686,46.720183 87.939342,46.468073 105.59568,46.17097 120.23213,50.788071 120.96794,56.198333 121.81745,62.444696 105.04901,67.600956 85.417876,67.807831 63.111738,68.042895 44.756911,62.17503 44.171535,55.311572 43.514833,47.611808 64.290004,41.291709 88.569708,41.133134 c 26.955082,-0.17605 49.036232,6.945625 49.464082,15.262257"
           id="path3760"
           inkscape:connector-curvature="0" />
      </g>
    </g>
  </g>
</svg>
